<svg width="48" height="48" viewBox="0 0 48 48" fill="none" xmlns="http://www.w3.org/2000/svg">
<g clip-path="url(#clip0_2_800)">
<path d="M45.0996 7.28087L38.4647 0.646186C38.048 0.229561 37.494 6.10352e-05 36.9047 6.10352e-05H8.97001C7.7536 6.10352e-05 6.76388 0.98978 6.76388 2.20619V24.0484H5.21251C3.58163 24.0484 2.25488 25.3753 2.25488 27.0061V40.5332C2.25488 42.1641 3.58163 43.491 5.21251 43.491H28.5094C29.7259 43.491 30.7155 42.5012 30.7155 41.2848V30.7637C30.7155 29.5472 29.7258 28.5575 28.5094 28.5575H5.21251C4.35704 28.5575 3.66113 27.8616 3.66113 27.0062C3.66113 26.1507 4.35704 25.4548 5.21251 25.4548H6.76388V26.2549C6.76388 26.6432 7.07869 26.9581 7.46701 26.9581C7.85532 26.9581 8.17013 26.6432 8.17013 26.2549V2.20619C8.17013 1.76509 8.52901 1.40631 8.97001 1.40631H36.0728V8.21828C36.0728 9.0204 36.7253 9.673 37.5275 9.673H44.3394V45.7939C44.3394 46.235 43.9806 46.5938 43.5396 46.5938H8.97001C8.52891 46.5938 8.17013 46.235 8.17013 45.7939C8.17013 45.4056 7.85532 45.0908 7.46701 45.0908C7.07869 45.0908 6.76388 45.4056 6.76388 45.7939C6.76388 47.0104 7.7536 48.0001 8.97001 48.0001H43.5396C44.7561 48.0001 45.7457 47.0103 45.7457 45.7939V8.84087C45.7458 8.25165 45.5163 7.69759 45.0996 7.28087ZM5.21251 29.9638H28.5094C28.9505 29.9638 29.3093 30.3227 29.3093 30.7637V41.2849C29.3093 41.726 28.9504 42.0848 28.5094 42.0848H5.21251C4.35704 42.0848 3.66113 41.3888 3.66113 40.5333V29.5233C4.11235 29.8026 4.64391 29.9638 5.21251 29.9638ZM37.4791 8.21828V1.6494L44.0966 8.26675H37.5275C37.5009 8.26675 37.4791 8.245 37.4791 8.21828Z" fill="white"/>
<path d="M22.1807 39.7114C22.569 39.7114 22.8838 39.3966 22.8838 39.0083V36.6708H24.4073C24.7956 36.6708 25.1104 36.356 25.1104 35.9677C25.1104 35.5794 24.7956 35.2646 24.4073 35.2646H22.8838V33.7433H24.5995C24.9878 33.7433 25.3026 33.4285 25.3026 33.0402C25.3026 32.6518 24.9878 32.337 24.5995 32.337H22.1807C21.7924 32.337 21.4775 32.6518 21.4775 33.0402V39.0082C21.4775 39.3965 21.7924 39.7114 22.1807 39.7114Z" fill="white"/>
<path d="M14.7879 39.4405C14.9196 39.5712 15.0978 39.6446 15.2833 39.6446H15.2859C15.3359 39.6444 16.5139 39.6399 16.9844 39.6316C18.7219 39.6012 19.983 38.0842 19.983 36.0243C19.983 33.859 18.7536 32.4041 16.9238 32.4041H15.2715C15.0847 32.4041 14.9058 32.4783 14.7739 32.6105C14.642 32.7427 14.568 32.9218 14.5684 33.1085V33.1131V33.1132V38.8466C14.5684 38.8949 14.5732 38.9421 14.5825 38.9876C14.5938 39.1582 14.666 39.3194 14.7879 39.4405ZM16.9238 33.8103C18.1426 33.8103 18.5767 34.954 18.5767 36.0243C18.5767 37.5254 17.7647 38.2116 16.9598 38.2256C16.7361 38.2295 16.337 38.2326 15.984 38.2347C15.9817 37.5449 15.977 34.5279 15.9758 33.8103H16.9238Z" fill="white"/>
<path d="M8.94629 39.7334C9.3346 39.7334 9.64941 39.4187 9.64941 39.0303V37.1181C9.99854 37.1163 10.3955 37.1145 10.6203 37.1145C11.9618 37.1145 13.0533 36.038 13.0533 34.7148C13.0533 33.3915 11.9618 32.3149 10.6203 32.3149H8.94629C8.75944 32.3149 8.58029 32.3894 8.44829 32.5217C8.31685 32.6535 8.24326 32.8321 8.24326 33.0181H8.24316V39.0302C8.24316 39.4187 8.55798 39.7334 8.94629 39.7334ZM10.6203 33.7213C11.1769 33.7213 11.647 34.1763 11.647 34.7148C11.647 35.2533 11.1769 35.7083 10.6203 35.7083C10.397 35.7083 10.005 35.7101 9.65719 35.7119C9.65532 35.3527 9.65251 34.0971 9.65148 33.7214H10.6203V33.7213Z" fill="white"/>
<path d="M22.1207 20.3871C20.3926 20.9326 18.619 21.6875 17.6729 22.6641C16.8922 23.4699 16.7507 24.4048 17.2846 25.2291C17.647 25.7885 18.1451 26.081 18.7051 26.081C18.9201 26.081 19.1443 26.0378 19.3733 25.9503C20.1995 25.6343 21.0918 24.7355 22.1012 23.2025C22.4271 22.7075 22.757 22.1575 23.0854 21.5625C23.205 21.5273 23.3268 21.4924 23.4515 21.4575C25.4358 20.9023 27.6808 20.4994 29.651 20.331C30.852 21.4924 32.0935 22.3972 33.1518 22.6441C34.3161 22.9157 35.2392 22.3833 35.6204 21.2198C35.8514 20.5151 35.5855 19.8506 34.9091 19.4423C34.2136 19.0224 33.0051 18.8196 31.3179 18.839C30.9585 18.8431 30.5792 18.8577 30.1845 18.8822C29.4266 18.1005 28.638 17.1663 27.8785 16.1345C27.2901 15.3353 26.7642 14.5355 26.3194 13.7753C26.3678 13.6087 26.4137 13.4444 26.4573 13.283C26.938 11.5005 27.1095 10.1358 26.9669 9.22658C26.7609 7.91361 25.9135 7.72714 25.5587 7.70802C24.3508 7.64267 23.5371 8.25214 23.3823 9.33823C23.2593 10.201 23.5495 11.3881 24.2446 12.8663C24.4099 13.2177 24.5953 13.5799 24.7988 13.9497C24.723 14.1931 24.6407 14.4463 24.5517 14.7098C23.9035 16.6274 23.0256 18.6707 22.1207 20.3871ZM18.7441 24.671C18.694 24.6772 18.6094 24.6878 18.4649 24.4646C18.3472 24.2829 18.3408 24.1459 18.4412 23.9587C18.676 23.5211 19.4775 22.907 21.0284 22.2727C19.9459 23.9516 19.137 24.6219 18.7441 24.671ZM34.2958 20.7341C34.2947 20.7428 34.2919 20.7584 34.2841 20.782C34.1085 21.3179 33.8726 21.3684 33.4712 21.2748C32.9813 21.1605 32.359 20.7985 31.6649 20.2445C33.5444 20.2595 34.2 20.5982 34.2958 20.7341ZM24.7744 9.5368C24.8031 9.3358 24.8353 9.10977 25.3702 9.10977C25.4039 9.10977 25.4396 9.1107 25.4773 9.11248C25.6374 9.30758 25.7198 10.1756 25.3493 11.8935C24.9129 10.8927 24.6997 10.0613 24.7744 9.5368ZM25.7535 15.5372C26.0622 16.0115 26.3941 16.4904 26.746 16.9684C27.2507 17.654 27.8209 18.3659 28.424 19.0454C27.7263 19.1296 27.0067 19.2382 26.2868 19.3689C25.7997 19.4573 24.9504 19.6241 23.9563 19.8721C24.1768 19.4149 24.3942 18.941 24.6069 18.4536C25.0297 17.4853 25.4186 16.4945 25.7535 15.5372Z" fill="white"/>
</g>
<defs>
<clipPath id="clip0_2_800">
<rect width="48" height="48" fill="white"/>
</clipPath>
</defs>
</svg>
