<svg width="24" height="24" viewBox="0 0 24 24" fill="none" xmlns="http://www.w3.org/2000/svg">
<g clip-path="url(#clip0_2_123)">
<path d="M16.2657 24C15.2144 24 14.2004 23.4135 13.712 22.4157L12.2984 19.769L11.4965 21.2996C11.476 21.3389 11.4526 21.3767 11.4267 21.4127C10.9005 22.143 10.0346 22.4025 9.39351 22.4025C9.38835 22.4025 9.38319 22.4025 9.37799 22.4025C8.66155 22.3978 7.94815 22.0903 7.42085 21.559C6.8732 21.0071 6.57165 20.2746 6.57165 19.4962V7.35762C6.57165 6.25047 7.19547 5.27302 8.19959 4.80671C9.19419 4.3448 10.3312 4.49161 11.1747 5.18869L17.3504 9.78769C17.7657 10.0969 17.8516 10.6843 17.5424 11.0995C17.2331 11.5148 16.6458 11.6007 16.2306 11.2915L10.0341 6.67699C10.0187 6.66555 10.0037 6.65369 9.98911 6.64132C9.56502 6.28319 9.11675 6.44819 8.98935 6.5073C8.86203 6.56641 8.44672 6.80243 8.44672 7.35762V19.4963C8.44672 20.1003 8.94402 20.5246 9.39041 20.5275C9.39182 20.5275 9.39332 20.5275 9.39473 20.5275C9.57716 20.5275 9.77774 20.452 9.87768 20.3495L11.4601 17.3289C11.6213 17.0212 11.9395 16.8279 12.2868 16.8265C12.2881 16.8265 12.2893 16.8265 12.2906 16.8265C12.6365 16.8265 12.9544 17.017 13.1175 17.3223L15.3746 21.5484C15.381 21.5603 15.3871 21.5723 15.3929 21.5845C15.6179 22.0534 16.185 22.2574 16.657 22.0389C16.8919 21.9302 17.0692 21.7362 17.1563 21.4924C17.2407 21.2561 17.2299 21.0022 17.1262 20.7747L14.8483 16.7211C14.6851 16.4308 14.6882 16.0758 14.8564 15.7884C15.0246 15.501 15.3326 15.3244 15.6656 15.3244H18.8797C19.4237 15.2966 19.6409 14.8682 19.6948 14.7366C19.7501 14.6017 19.9003 14.1292 19.5121 13.7175C19.157 13.3408 19.1744 12.7475 19.5511 12.3922C19.9278 12.037 20.5212 12.0545 20.8764 12.4312C21.6456 13.2471 21.8577 14.4028 21.4299 15.4473C21.0045 16.4861 20.0484 17.1572 18.935 17.1987C18.9233 17.1992 18.9117 17.1994 18.9 17.1994H17.2678L18.777 19.885C18.7863 19.9015 18.7951 19.9183 18.8033 19.9353C19.1376 20.6246 19.1797 21.4016 18.922 22.1231C18.6643 22.8446 18.1395 23.4191 17.4442 23.7407C17.0634 23.9166 16.6619 24 16.2657 24ZM7.63169 3.68169C8.08573 3.43274 8.2519 2.86287 8.00295 2.40889L7.20606 0.955746C6.95711 0.501758 6.38734 0.335584 5.9333 0.58454C5.47926 0.833495 5.31309 1.40336 5.56205 1.85735L6.35893 3.31049C6.52946 3.62146 6.85047 3.79738 7.18178 3.79738C7.33413 3.79738 7.48872 3.76016 7.63169 3.68169ZM5.64919 5.81364C5.85671 5.33926 5.64038 4.78646 5.16604 4.57894L3.66603 3.92268C3.19165 3.71512 2.63889 3.93149 2.43133 4.40583C2.22381 4.88021 2.44014 5.43301 2.91447 5.64053L4.41449 6.29678C4.53679 6.35032 4.66429 6.37563 4.78977 6.37563C5.15095 6.37558 5.49516 6.16567 5.64919 5.81364ZM11.4923 2.78117L12.0079 1.23428C12.1716 0.743073 11.9062 0.212114 11.415 0.0484251C10.9239 -0.115405 10.3928 0.150145 10.2291 0.641353L9.71348 2.18824C9.54974 2.67945 9.8152 3.21041 10.3064 3.3741C10.4047 3.40691 10.5047 3.42247 10.603 3.42247C10.9955 3.42247 11.3613 3.17399 11.4923 2.78117ZM13.9734 5.15996L15.239 4.22245C15.6551 3.91424 15.7425 3.32713 15.4343 2.91106C15.1261 2.495 14.539 2.40757 14.123 2.71573L12.8573 3.65324C12.4413 3.96145 12.3538 4.54856 12.662 4.96463C12.8459 5.21293 13.1292 5.34418 13.4161 5.34418C13.61 5.34418 13.8056 5.28423 13.9734 5.15996ZM3.73222 10.4334L5.13848 9.87085C5.61924 9.67857 5.85305 9.13294 5.66077 8.65223C5.46844 8.17143 4.92276 7.93761 4.44215 8.12994L3.03588 8.69245C2.55513 8.88473 2.32131 9.43036 2.5136 9.91107C2.66022 10.2776 3.01226 10.5007 3.38431 10.5007C3.50023 10.5007 3.61803 10.479 3.73222 10.4334Z" fill="white"/>
</g>
<defs>
<clipPath id="clip0_2_123">
<rect width="24" height="24" fill="white"/>
</clipPath>
</defs>
</svg>
