<svg width="18" height="18" viewBox="0 0 18 18" fill="none" xmlns="http://www.w3.org/2000/svg">
<g clip-path="url(#clip0_2_287)">
<path d="M12.3219 17.5142C11.5759 17.5142 10.8565 17.098 10.5099 16.3901L9.50697 14.5122L8.938 15.5982C8.92343 15.6261 8.90684 15.6529 8.88848 15.6784C8.51508 16.1966 7.90071 16.3808 7.44586 16.3808C7.4422 16.3808 7.43854 16.3808 7.43485 16.3807C6.92651 16.3774 6.42034 16.1593 6.04621 15.7822C5.65764 15.3907 5.44368 14.871 5.44368 14.3187V5.70605C5.44368 4.9205 5.8863 4.22698 6.59874 3.89611C7.30444 3.56838 8.11121 3.67254 8.70968 4.16714L13.0915 7.43024C13.3861 7.64965 13.4471 8.06639 13.2277 8.36103C13.0083 8.65568 12.5916 8.71664 12.2969 8.49723L7.90034 5.22312C7.88947 5.21501 7.87883 5.20659 7.86845 5.19781C7.56755 4.94371 7.24949 5.06079 7.1591 5.10273C7.06876 5.14467 6.77409 5.31213 6.77409 5.70605V14.3187C6.77409 14.7473 7.12693 15.0483 7.44366 15.0504C7.44466 15.0504 7.44572 15.0504 7.44672 15.0504C7.57617 15.0504 7.71848 14.9968 7.78939 14.9241L8.91216 12.7809C9.0265 12.5626 9.25227 12.4254 9.49872 12.4244C9.49962 12.4244 9.50051 12.4244 9.50138 12.4244C9.74683 12.4244 9.97243 12.5596 10.0881 12.7762L11.6896 15.7747C11.6941 15.7832 11.6985 15.7917 11.7026 15.8004C11.8622 16.133 12.2646 16.2778 12.5994 16.1227C12.7662 16.0457 12.892 15.908 12.9537 15.735C13.0136 15.5674 13.0059 15.3872 12.9324 15.2258L11.3161 12.3497C11.2004 12.1437 11.2026 11.8918 11.3219 11.6879C11.4412 11.484 11.6598 11.3587 11.896 11.3587H14.1766C14.5625 11.3389 14.7166 11.035 14.7548 10.9416C14.7941 10.8459 14.9007 10.5106 14.6253 10.2185C14.3733 9.95123 14.3856 9.53026 14.6529 9.27822C14.9202 9.02619 15.3412 9.03862 15.5932 9.3059C16.139 9.88477 16.2895 10.7047 15.986 11.4459C15.6841 12.1829 15.0058 12.6591 14.2157 12.6886C14.2075 12.6889 14.1992 12.689 14.1909 12.689H13.0329L14.1037 14.5946C14.1102 14.6063 14.1165 14.6181 14.1224 14.6302C14.3595 15.1193 14.3894 15.6706 14.2066 16.1825C14.0237 16.6944 13.6514 17.102 13.158 17.3302C12.8878 17.455 12.6029 17.5142 12.3219 17.5142ZM6.19581 3.09789C6.51796 2.92125 6.63586 2.51692 6.45922 2.1948L5.89381 1.16377C5.71717 0.84165 5.31291 0.723745 4.99076 0.900385C4.66861 1.07703 4.55071 1.48136 4.72735 1.80347L5.29275 2.83451C5.41375 3.05515 5.64151 3.17997 5.87659 3.17997C5.98468 3.17997 6.09437 3.15357 6.19581 3.09789ZM4.78917 4.61056C4.93641 4.27397 4.78292 3.88174 4.44637 3.73451L3.38208 3.26888C3.04549 3.1216 2.6533 3.27513 2.50603 3.61168C2.35879 3.94826 2.51228 4.34049 2.84883 4.48773L3.91313 4.95336C3.9999 4.99134 4.09036 5.0093 4.1794 5.0093C4.43566 5.00927 4.67988 4.86033 4.78917 4.61056ZM8.93497 2.45895L9.30083 1.36139C9.417 1.01287 9.22865 0.636141 8.88013 0.519999C8.53174 0.403758 8.15488 0.592172 8.03874 0.940696L7.67288 2.03825C7.55671 2.38677 7.74506 2.7635 8.09358 2.87964C8.16336 2.90293 8.23427 2.91397 8.30401 2.91397C8.58249 2.91397 8.84208 2.73766 8.93497 2.45895ZM10.6954 4.14675L11.5934 3.48157C11.8886 3.26289 11.9506 2.84632 11.732 2.55111C11.5133 2.2559 11.0967 2.19387 10.8015 2.41252L9.90352 3.0777C9.60831 3.29638 9.54628 3.71295 9.76493 4.00816C9.89543 4.18434 10.0964 4.27746 10.3 4.27746C10.4376 4.27746 10.5764 4.23493 10.6954 4.14675ZM3.42904 7.88835L4.42681 7.48924C4.76792 7.35281 4.93382 6.96568 4.79739 6.6246C4.66093 6.28346 4.27376 6.11756 3.93275 6.25403L2.93497 6.65314C2.59386 6.78957 2.42797 7.17671 2.5644 7.51778C2.66843 7.77787 2.91821 7.93611 3.18219 7.93611C3.26444 7.93611 3.34802 7.92075 3.42904 7.88835Z" fill="white"/>
</g>
<defs>
<clipPath id="clip0_2_287">
<rect width="17.0286" height="17.0286" fill="white" transform="translate(0.780952 0.485657)"/>
</clipPath>
</defs>
</svg>
