<svg width="56" height="39" viewBox="-10 3 56 41" fill="none" xmlns="http://www.w3.org/2000/svg">
<path d="M46 40.8666H0V8.00949L19.4615 0.866638H46V40.8666Z" fill="black"/>
<g clip-path="url(#clip0_2_993)">
<path d="M23.7188 24.375C23.7188 25.0642 24.2795 25.625 24.9688 25.625H26.4375C27.1267 25.625 27.6875 25.0642 27.6875 24.375V22.9062C27.6875 22.217 27.1267 21.6562 26.4375 21.6562H24.9688C24.2795 21.6562 23.7188 22.217 23.7188 22.9062V24.375ZM24.9688 22.9062H26.4375L26.4383 24.375C26.4383 24.375 26.4381 24.375 26.4375 24.375H24.9688V22.9062Z" fill="white"/>
<path d="M27.0625 20.1875C27.4077 20.1875 27.6875 19.9077 27.6875 19.5625C27.6875 19.2173 27.4077 18.9375 27.0625 18.9375C26.7173 18.9375 26.4375 19.2173 26.4375 19.5625C26.4375 19.9077 26.7173 20.1875 27.0625 20.1875Z" fill="white"/>
<path d="M24.3438 20.1875C24.6889 20.1875 24.9688 19.9077 24.9688 19.5625C24.9688 19.2173 24.6889 18.9375 24.3438 18.9375C23.9986 18.9375 23.7188 19.2173 23.7188 19.5625C23.7188 19.9077 23.9986 20.1875 24.3438 20.1875Z" fill="white"/>
<path d="M30.375 24C30.7202 24 31 23.7202 31 23.375V16.75C31 15.3715 29.8785 14.25 28.5 14.25H27.6875V13.625C27.6875 13.2798 27.4077 13 27.0625 13C26.7173 13 26.4375 13.2798 26.4375 13.625V14.25H23.5938V13.625C23.5938 13.2798 23.3139 13 22.9688 13C22.6236 13 22.3438 13.2798 22.3438 13.625V14.25H19.5312V13.625C19.5312 13.2798 19.2514 13 18.9062 13C18.5611 13 18.2812 13.2798 18.2812 13.625V14.25H17.5C16.1215 14.25 15 15.3715 15 16.75V26.5C15 27.8785 16.1215 29 17.5 29H28.5C29.8785 29 31 27.8785 31 26.5C31 26.1548 30.7202 25.875 30.375 25.875C30.0298 25.875 29.75 26.1548 29.75 26.5C29.75 27.1892 29.1892 27.75 28.5 27.75H17.5C16.8108 27.75 16.25 27.1892 16.25 26.5V16.75C16.25 16.0608 16.8108 15.5 17.5 15.5H18.2812V16.125C18.2812 16.4702 18.5611 16.75 18.9062 16.75C19.2514 16.75 19.5312 16.4702 19.5312 16.125V15.5H22.3438V16.125C22.3438 16.4702 22.6236 16.75 22.9688 16.75C23.3139 16.75 23.5938 16.4702 23.5938 16.125V15.5H26.4375V16.125C26.4375 16.4702 26.7173 16.75 27.0625 16.75C27.4077 16.75 27.6875 16.4702 27.6875 16.125V15.5H28.5C29.1892 15.5 29.75 16.0608 29.75 16.75V23.375C29.75 23.7202 30.0298 24 30.375 24Z" fill="white"/>
<path d="M18.9062 25.625C19.2514 25.625 19.5312 25.3452 19.5312 25C19.5312 24.6548 19.2514 24.375 18.9062 24.375C18.5611 24.375 18.2812 24.6548 18.2812 25C18.2812 25.3452 18.5611 25.625 18.9062 25.625Z" fill="white"/>
<path d="M18.9062 20.1875C19.2514 20.1875 19.5312 19.9077 19.5312 19.5625C19.5312 19.2173 19.2514 18.9375 18.9062 18.9375C18.5611 18.9375 18.2812 19.2173 18.2812 19.5625C18.2812 19.9077 18.5611 20.1875 18.9062 20.1875Z" fill="white"/>
<path d="M18.9062 22.9062C19.2514 22.9062 19.5312 22.6264 19.5312 22.2812C19.5312 21.9361 19.2514 21.6562 18.9062 21.6562C18.5611 21.6562 18.2812 21.9361 18.2812 22.2812C18.2812 22.6264 18.5611 22.9062 18.9062 22.9062Z" fill="white"/>
<path d="M21.625 22.9062C21.9702 22.9062 22.25 22.6264 22.25 22.2812C22.25 21.9361 21.9702 21.6562 21.625 21.6562C21.2798 21.6562 21 21.9361 21 22.2812C21 22.6264 21.2798 22.9062 21.625 22.9062Z" fill="white"/>
<path d="M21.625 20.1875C21.9702 20.1875 22.25 19.9077 22.25 19.5625C22.25 19.2173 21.9702 18.9375 21.625 18.9375C21.2798 18.9375 21 19.2173 21 19.5625C21 19.9077 21.2798 20.1875 21.625 20.1875Z" fill="white"/>
<path d="M21.625 25.625C21.9702 25.625 22.25 25.3452 22.25 25C22.25 24.6548 21.9702 24.375 21.625 24.375C21.2798 24.375 21 24.6548 21 25C21 25.3452 21.2798 25.625 21.625 25.625Z" fill="white"/>
</g>
<defs>
<clipPath id="clip0_2_993">
<rect width="16" height="16" fill="white" transform="translate(15 13)"/>
</clipPath>
</defs>
</svg>
