<svg width="200" height="56" viewBox="0 0 200 56" fill="none" xmlns="http://www.w3.org/2000/svg">
<path fill-rule="evenodd" clip-rule="evenodd" d="M0 0.612335H107.299L133.333 9.91116V55.5401H0V0.612335Z" fill="black"/>
<path fill-rule="evenodd" clip-rule="evenodd" d="M199.999 0.612335H159.367L133.332 9.91116V55.5401H199.999C199.999 37.3118 199.999 30.3219 199.999 0.612335Z" fill="#F74435"/>
<path d="M145.911 20.4981V19.3947C145.911 18.4614 145.357 18.0434 144.487 18.0434C143.991 18.0434 143.549 18.1649 143.306 18.2475V18.8794C143.583 18.7579 143.962 18.6413 144.419 18.6413C144.944 18.6413 145.231 18.9135 145.231 19.2975V19.4044C144.988 19.3509 144.691 19.3121 144.429 19.3121C143.787 19.3121 143.053 19.5551 143.053 20.3474C143.053 20.9842 143.573 21.2904 144.132 21.2904C144.614 21.2904 144.993 21.1349 145.294 20.8918C145.401 21.1446 145.63 21.2515 145.911 21.2515C146.067 21.2515 146.218 21.2272 146.349 21.1738V20.678C146.286 20.6974 146.213 20.7169 146.145 20.7169C146.014 20.7217 145.911 20.6731 145.911 20.4981ZM144.555 19.7981C144.774 19.7981 145.037 19.837 145.221 19.8759V20.396C144.978 20.6391 144.657 20.7606 144.327 20.7606C144.021 20.7606 143.748 20.605 143.748 20.3037C143.753 19.9197 144.162 19.7981 144.555 19.7981ZM147.525 21.2127V19.1225L148.4 20.4738H148.813L149.693 19.1225V21.2127H150.354V18.1309H149.659L148.604 19.7544L147.559 18.1309H146.864V21.2127H147.525ZM152.6 20.4544L151.56 18.1309H150.826L152.289 21.2418L152.226 21.3974C152.046 21.8786 151.793 22.1168 151.463 22.1168C151.361 22.1168 151.249 22.1022 151.147 22.073V22.6563C151.283 22.6904 151.419 22.7098 151.55 22.7098C152.017 22.7098 152.454 22.4376 152.79 21.6356L154.233 18.1357H153.514L152.6 20.4544ZM155.361 18.6121V18.1309H154.749V22.6272H155.434V20.8141C155.648 21.0571 156.007 21.2953 156.547 21.2953C157.471 21.2953 158.078 20.5564 158.078 19.6718C158.078 18.7871 157.475 18.0482 156.547 18.0482C155.973 18.0434 155.604 18.3156 155.361 18.6121ZM157.378 19.6718C157.378 20.2745 156.98 20.6925 156.421 20.6925C155.944 20.6925 155.585 20.3863 155.439 20.0461V19.2926C155.585 18.9572 155.944 18.651 156.421 18.651C156.98 18.6461 157.378 19.0642 157.378 19.6718ZM158.555 19.6961C158.555 20.7946 159.396 21.2953 160.217 21.2953C160.611 21.2953 160.941 21.2224 161.238 21.0814V20.4446C160.995 20.5856 160.664 20.6828 160.339 20.6828C159.784 20.6828 159.255 20.3669 159.255 19.6669C159.255 18.9426 159.809 18.651 160.353 18.651C160.669 18.651 160.985 18.7482 161.209 18.9086V18.2767C160.936 18.1163 160.606 18.0385 160.256 18.0385C159.434 18.0434 158.555 18.544 158.555 19.6961ZM162.613 21.2127V19.9343H163.109L164.125 21.2127H164.917L163.678 19.6572L164.796 18.126H164.013L163.129 19.3461H162.623V18.126H161.938V21.2078H162.613V21.2127ZM165.953 21.2127L167.606 19.1954V21.2127H168.291V18.1309H167.698L166.045 20.1481V18.1309H165.36V21.2127H165.953ZM171.557 17.4358V16.8768C171.232 17.0809 170.94 17.149 170.619 17.149C170.298 17.149 170.007 17.0858 169.681 16.8768V17.4358C169.963 17.6302 170.274 17.6983 170.619 17.6983C170.964 17.6983 171.275 17.6253 171.557 17.4358ZM169.744 21.2127L171.397 19.1954V21.2127H172.082V18.1309H171.489L169.837 20.1481V18.1309H169.156V21.2127H169.744ZM143.092 26.7395C143.092 27.804 143.904 28.363 144.764 28.363C145.63 28.363 146.436 27.804 146.436 26.7395C146.436 25.6749 145.634 25.1159 144.764 25.1159C143.899 25.1111 143.092 25.6701 143.092 26.7395ZM145.732 26.7395C145.732 27.3422 145.333 27.7359 144.759 27.7359C144.181 27.7359 143.782 27.3422 143.782 26.7395C143.782 26.1367 144.181 25.743 144.759 25.743C145.333 25.743 145.732 26.1318 145.732 26.7395ZM150.184 26.8464C150.184 25.9131 149.518 25.3492 148.741 25.3492C148.264 25.3492 147.866 25.5826 147.661 25.8888C147.754 25.534 147.924 25.1354 148.318 24.9118C148.974 24.5472 149.479 24.693 149.912 24.3674V23.7014C149.474 24.134 148.799 23.8959 147.914 24.4403C147.36 24.7854 146.961 25.4659 146.961 26.5353C146.961 27.7748 147.661 28.3678 148.58 28.3678C149.509 28.363 150.184 27.8234 150.184 26.8464ZM147.652 26.861C147.652 26.4284 147.972 25.9471 148.566 25.9471C149.183 25.9471 149.484 26.3846 149.484 26.861C149.484 27.3373 149.183 27.7748 148.566 27.7748C147.968 27.77 147.652 27.3325 147.652 26.861ZM152.031 25.7819H153.072V28.2803H153.757V25.1986H151.38C151.322 26.7297 151.181 27.7554 150.661 27.7554C150.597 27.7554 150.534 27.7408 150.461 27.7165V28.256C150.617 28.3144 150.758 28.3387 150.884 28.3387C151.71 28.3387 151.944 27.2693 152.031 25.7819ZM157.252 27.5658V26.4624C157.252 25.5291 156.698 25.1111 155.828 25.1111C155.332 25.1111 154.889 25.2326 154.646 25.3152V25.9471C154.924 25.8256 155.303 25.709 155.76 25.709C156.285 25.709 156.571 25.9763 156.571 26.3652V26.4721C156.328 26.4186 156.032 26.3798 155.769 26.3798C155.128 26.3798 154.394 26.6228 154.394 27.4151C154.394 28.0519 154.914 28.3581 155.473 28.3581C155.954 28.3581 156.333 28.2026 156.635 27.9595C156.741 28.2123 156.97 28.3192 157.252 28.3192C157.407 28.3192 157.558 28.2949 157.689 28.2415V27.7457C157.626 27.7651 157.553 27.7845 157.485 27.7845C157.354 27.7894 157.252 27.7408 157.252 27.5658ZM155.896 26.8658C156.114 26.8658 156.377 26.9047 156.562 26.9436V27.4637C156.319 27.7068 155.998 27.8283 155.667 27.8283C155.361 27.8283 155.089 27.6727 155.089 27.3714C155.094 26.9874 155.502 26.8658 155.896 26.8658ZM158.01 26.7638C158.01 27.8623 158.851 28.363 159.673 28.363C160.066 28.363 160.397 28.2901 160.693 28.1491V27.5123C160.45 27.6533 160.12 27.7505 159.794 27.7505C159.24 27.7505 158.71 27.4346 158.71 26.7346C158.71 26.0103 159.264 25.7187 159.809 25.7187C160.125 25.7187 160.441 25.8159 160.664 25.9763V25.3444C160.392 25.184 160.061 25.1062 159.711 25.1062C158.89 25.1111 158.01 25.6117 158.01 26.7638ZM162.813 28.2803V25.8013H163.872V25.1986H161.058V25.8013H162.122V28.2803H162.813ZM165.102 28.2803V27.0408H166.643V28.2803H167.328V25.1986H166.643V26.4381H165.102V25.1986H164.417V28.2803H165.102ZM167.999 26.7395C167.999 27.804 168.811 28.363 169.671 28.363C170.537 28.363 171.344 27.804 171.344 26.7395C171.344 25.6749 170.541 25.1159 169.671 25.1159C168.806 25.1111 167.999 25.6701 167.999 26.7395ZM170.639 26.7395C170.639 27.3422 170.24 27.7359 169.667 27.7359C169.088 27.7359 168.689 27.3422 168.689 26.7395C168.689 26.1367 169.088 25.743 169.667 25.743C170.24 25.743 170.639 26.1318 170.639 26.7395ZM174.411 24.5035V23.9445C174.085 24.1486 173.793 24.2167 173.473 24.2167C173.152 24.2167 172.86 24.1535 172.534 23.9445V24.5035C172.816 24.6979 173.127 24.7659 173.473 24.7659C173.818 24.7659 174.129 24.693 174.411 24.5035ZM172.598 28.2803L174.25 26.2631V28.2803H174.936V25.1986H174.343L172.69 27.2158V25.1986H172.005V28.2803H172.598ZM143.656 36.1744V35.3432H146.135V36.1744H146.782V34.7793H146.325V32.2614H143.914C143.928 33.3356 143.797 34.1182 143.428 34.7793H143.005V36.1744H143.656ZM144.56 32.8301H145.634V34.7842H144.152C144.409 34.2349 144.536 33.6565 144.56 32.8301ZM147.156 33.8023C147.156 34.8668 147.968 35.4258 148.828 35.4258C149.693 35.4258 150.5 34.8668 150.5 33.8023C150.5 32.7378 149.698 32.1788 148.828 32.1788C147.968 32.1788 147.156 32.7378 147.156 33.8023ZM149.795 33.8023C149.795 34.405 149.397 34.7988 148.823 34.7988C148.245 34.7988 147.846 34.405 147.846 33.8023C147.846 33.1995 148.245 32.8058 148.823 32.8058C149.397 32.8107 149.795 33.1995 149.795 33.8023ZM151.827 35.348V33.2579L152.702 34.6092H153.115L153.995 33.2579V35.348H154.656V32.2663H153.961L152.906 33.8898L151.861 32.2663H151.166V35.348H151.827ZM157.719 35.348V34.1085H159.259V35.348H159.945V32.2663H159.259V33.5058H157.719V32.2663H157.033V35.348H157.719ZM163.435 34.6335V33.5301C163.435 32.5968 162.881 32.1788 162.011 32.1788C161.515 32.1788 161.073 32.3003 160.829 32.3829V33.0148C161.107 32.8933 161.486 32.7766 161.943 32.7766C162.468 32.7766 162.754 33.0488 162.754 33.4329V33.5398C162.511 33.4863 162.215 33.4474 161.952 33.4474C161.311 33.4474 160.577 33.6905 160.577 34.4828C160.577 35.1196 161.097 35.4258 161.656 35.4258C162.137 35.4258 162.516 35.2703 162.818 35.0272C162.924 35.28 163.153 35.3869 163.435 35.3869C163.59 35.3869 163.741 35.3626 163.872 35.3091V34.8133C163.809 34.8328 163.736 34.8522 163.668 34.8522C163.542 34.8571 163.435 34.8085 163.435 34.6335ZM162.084 33.9335C162.302 33.9335 162.565 33.9724 162.75 34.0113V34.5314C162.506 34.7745 162.186 34.896 161.855 34.896C161.549 34.896 161.277 34.7404 161.277 34.4391C161.277 34.055 161.69 33.9335 162.084 33.9335ZM165 32.7426V32.2614H164.388V36.7577H165.073V34.9446C165.287 35.1876 165.647 35.4258 166.186 35.4258C167.11 35.4258 167.717 34.687 167.717 33.8023C167.717 32.9176 167.115 32.1788 166.186 32.1788C165.608 32.1788 165.243 32.451 165 32.7426ZM167.017 33.8023C167.017 34.405 166.619 34.8231 166.06 34.8231C165.583 34.8231 165.224 34.5168 165.078 34.1766V33.4231C165.224 33.0877 165.583 32.7815 166.06 32.7815C166.619 32.7815 167.017 33.1995 167.017 33.8023ZM168.189 33.8023C168.189 34.8668 169.001 35.4258 169.861 35.4258C170.726 35.4258 171.533 34.8668 171.533 33.8023C171.533 32.7378 170.731 32.1788 169.861 32.1788C169.001 32.1788 168.189 32.7378 168.189 33.8023ZM170.833 33.8023C170.833 34.405 170.435 34.7988 169.861 34.7988C169.283 34.7988 168.884 34.405 168.884 33.8023C168.884 33.1995 169.283 32.8058 169.861 32.8058C170.435 32.8107 170.833 33.1995 170.833 33.8023ZM172.496 36.1744V35.3432H174.975V36.1744H175.621V34.7793H175.164V32.2614H172.753C172.768 33.3356 172.636 34.1182 172.267 34.7793H171.844V36.1744H172.496ZM173.4 32.8301H174.474V34.7842H172.991C173.249 34.2349 173.375 33.6565 173.4 32.8301ZM176.943 35.348V34.1085H178.484V35.348H179.169V32.2663H178.484V33.5058H176.943V32.2663H176.258V35.348H176.943ZM179.84 33.8023C179.84 34.8668 180.652 35.4258 181.512 35.4258C182.378 35.4258 183.185 34.8668 183.185 33.8023C183.185 32.7378 182.383 32.1788 181.512 32.1788C180.647 32.1788 179.84 32.7378 179.84 33.8023ZM182.48 33.8023C182.48 34.405 182.081 34.7988 181.508 34.7988C180.929 34.7988 180.531 34.405 180.531 33.8023C180.531 33.1995 180.929 32.8058 181.508 32.8058C182.081 32.8107 182.48 33.1995 182.48 33.8023ZM184.536 35.348V32.869H186.15V32.2663H183.851V35.348H184.536ZM186.402 33.8023C186.402 34.8668 187.214 35.4258 188.075 35.4258C188.94 35.4258 189.747 34.8668 189.747 33.8023C189.747 32.7378 188.945 32.1788 188.075 32.1788C187.214 32.1788 186.402 32.7378 186.402 33.8023ZM189.047 33.8023C189.047 34.405 188.648 34.7988 188.075 34.7988C187.496 34.7988 187.098 34.405 187.098 33.8023C187.098 33.1995 187.496 32.8058 188.075 32.8058C188.648 32.8107 189.047 33.1995 189.047 33.8023ZM144.716 42.4109V39.9318H145.775V39.3291H142.961V39.9318H144.025V42.4109H144.716ZM148.128 42.4109C148.843 42.4109 149.144 42.0366 149.144 41.5651C149.144 41.1859 148.906 40.9429 148.619 40.8505C148.881 40.7339 149.056 40.4908 149.056 40.1506C149.056 39.6693 148.702 39.3291 148.079 39.3291H146.32V42.4109H148.128ZM147 41.1033H147.972C148.211 41.1033 148.449 41.1859 148.449 41.5019C148.449 41.7984 148.245 41.8956 147.963 41.8956H147.005V41.1033H147ZM147 39.8492H147.919C148.133 39.8492 148.356 39.9416 148.356 40.2429C148.356 40.52 148.162 40.6172 147.919 40.6172H147V39.8492ZM149.645 40.87C149.645 41.9345 150.456 42.4935 151.317 42.4935C152.182 42.4935 152.989 41.9345 152.989 40.87C152.989 39.8054 152.187 39.2464 151.317 39.2464C150.452 39.2464 149.645 39.8054 149.645 40.87ZM152.284 40.87C152.284 41.4727 151.885 41.8665 151.312 41.8665C150.733 41.8665 150.335 41.4727 150.335 40.87C150.335 40.2672 150.733 39.8735 151.312 39.8735C151.885 39.8735 152.284 40.2672 152.284 40.87ZM154.262 39.8103V39.3291H153.65V43.8254H154.335V42.0123C154.549 42.2553 154.909 42.4935 155.448 42.4935C156.372 42.4935 156.98 41.7547 156.98 40.87C156.98 39.9853 156.377 39.2464 155.448 39.2464C154.875 39.2464 154.505 39.5138 154.262 39.8103ZM156.28 40.87C156.28 41.4727 155.881 41.8908 155.322 41.8908C154.846 41.8908 154.486 41.5845 154.34 41.2443V40.4908C154.486 40.1554 154.846 39.8492 155.322 39.8492C155.881 39.8492 156.28 40.2672 156.28 40.87ZM160.207 42.4109V39.3291H159.522V40.8214C159.318 40.8991 159.118 40.938 158.861 40.938C158.428 40.938 158.156 40.8019 158.156 40.3547V39.3339H157.471V40.4131C157.471 41.1908 157.976 41.5456 158.666 41.5456C159.012 41.5456 159.264 41.4922 159.527 41.3998V42.4206H160.207V42.4109ZM160.873 40.87C160.873 41.9539 161.675 42.4935 162.618 42.4935C163.051 42.4935 163.44 42.4157 163.722 42.2796V41.6866C163.459 41.813 163.119 41.9053 162.745 41.9053C162.181 41.9053 161.641 41.672 161.563 41.1227H163.882C164.081 40.2283 163.658 39.2416 162.429 39.2416C161.719 39.2464 160.873 39.752 160.873 40.87ZM163.27 40.6123H161.559C161.583 40.0922 162.001 39.8152 162.463 39.8152C163.143 39.82 163.309 40.345 163.27 40.6123ZM164.383 40.8991C164.383 41.9977 165.224 42.4984 166.045 42.4984C166.439 42.4984 166.769 42.4255 167.066 42.2845V41.6477C166.823 41.7887 166.492 41.8859 166.167 41.8859C165.613 41.8859 165.083 41.5699 165.083 40.87C165.083 40.1457 165.637 39.8541 166.181 39.8541C166.497 39.8541 166.813 39.9513 167.037 40.1117V39.4798C166.765 39.3194 166.434 39.2416 166.084 39.2416C165.263 39.2464 164.383 39.7471 164.383 40.8991ZM169.185 42.4109V39.9318H170.245V39.3291H167.431V39.9318H168.495V42.4109H169.185ZM172.598 42.4109C173.312 42.4109 173.614 42.0366 173.614 41.5651C173.614 41.1859 173.375 40.9429 173.089 40.8505C173.351 40.7339 173.526 40.4908 173.526 40.1506C173.526 39.6693 173.171 39.3291 172.549 39.3291H170.789V42.4109H172.598ZM171.475 41.1033H172.447C172.685 41.1033 172.923 41.1859 172.923 41.5019C172.923 41.7984 172.719 41.8956 172.437 41.8956H171.48V41.1033H171.475ZM171.475 39.8492H172.393C172.607 39.8492 172.831 39.9416 172.831 40.2429C172.831 40.52 172.636 40.6172 172.393 40.6172H171.475V39.8492ZM176.933 41.7012V40.5978C176.933 39.6645 176.379 39.2464 175.509 39.2464C175.013 39.2464 174.571 39.368 174.328 39.4506V40.0825C174.605 39.961 174.984 39.8443 175.441 39.8443C175.966 39.8443 176.253 40.1165 176.253 40.5005V40.6075C176.01 40.554 175.713 40.5151 175.451 40.5151C174.809 40.5151 174.075 40.7582 174.075 41.5505C174.075 42.1873 174.595 42.4935 175.154 42.4935C175.636 42.4935 176.015 42.338 176.316 42.0949C176.423 42.3477 176.652 42.4546 176.933 42.4546C177.089 42.4546 177.24 42.4303 177.371 42.3768V41.881C177.308 41.9005 177.235 41.9199 177.167 41.9199C177.036 41.9248 176.933 41.8713 176.933 41.7012ZM175.577 41.0012C175.796 41.0012 176.059 41.0401 176.243 41.079V41.5991C176 41.8421 175.679 41.9637 175.349 41.9637C175.043 41.9637 174.77 41.8081 174.77 41.5067C174.775 41.1227 175.188 41.0012 175.577 41.0012Z" fill="white"/>
<path d="M22.0653 38.7944C24.4179 38.7944 26.3817 38.0216 27.9615 36.4807H28.0781L28.851 38.3327H32.589V19.8274H28.851L28.0781 21.6793H27.9615C26.3817 20.1385 24.413 19.3656 22.0653 19.3656C19.4452 19.3656 17.287 20.2503 15.6295 22.0634C13.9719 23.8765 13.1602 26.1902 13.1602 29.0776C13.1602 34.7891 16.8204 38.7944 22.0653 38.7944ZM22.9888 33.3211C20.675 33.3211 19.1342 31.5858 19.1342 29.0824C19.1342 26.6131 20.675 24.8438 22.9888 24.8438C25.2637 24.8438 26.7657 26.6958 26.7657 28.854V29.3158C26.7657 31.474 25.2637 33.3211 22.9888 33.3211ZM45.7717 38.7944C48.625 38.7944 50.9776 37.8709 52.7859 35.98C54.599 34.0891 55.5225 31.8142 55.5225 29.0776C55.5225 26.3409 54.599 24.066 52.7859 22.1752C50.9728 20.2843 48.6201 19.3607 45.7328 19.3607C42.8795 19.3607 40.5268 20.2843 38.7186 22.1752C36.9055 24.066 35.9819 26.3409 35.9819 29.0776C35.8652 34.3613 40.065 38.8722 45.7717 38.7944ZM45.7717 33.2044C43.5746 33.2044 41.9559 31.4302 41.9559 29.0776C41.9559 26.7249 43.5746 24.9507 45.7717 24.9507C47.9688 24.9507 49.5874 26.7249 49.5874 29.0776C49.5874 31.4351 47.9688 33.2044 45.7717 33.2044ZM76.7645 20.0218H60.957V24.7271C60.957 27.1187 60.9181 28.8929 60.8014 30.0838C60.6848 31.2795 60.4174 32.3975 59.9897 33.4767H56.9079V42.688H61.7639V38.3327H73.4445V42.688H78.3005V33.4767H76.7596V20.0218H76.7645ZM71.1016 24.9167V33.4767H65.7061C66.1678 31.9747 66.44 29.9282 66.4789 28.3484C66.5178 27.5367 66.5178 26.4187 66.5178 24.9167H71.1016ZM93.5345 26.652H88.1V19.8274H82.0871V38.3327H88.1V31.508H93.5345V38.3327H99.5862V19.8274H93.5345V26.652ZM102.556 19.8274V24.9167H107.684V38.3327H113.736V24.9167H118.903V19.8274H102.556Z" fill="white"/>
</svg>
