<svg width="25" height="14" viewBox="0 0 25 14" fill="none" xmlns="http://www.w3.org/2000/svg">
<path d="M24.0439 12.3671C23.9794 12.2591 23.5803 11.392 21.6602 9.60987C19.6501 7.74374 19.9201 8.04676 22.3413 4.82002C23.8159 2.85487 24.4054 1.65478 24.2209 1.14175C24.0454 0.65271 22.9608 0.781719 22.9608 0.781719L19.3545 0.802721C19.3545 0.802721 19.0875 0.766718 18.888 0.885227C18.6945 1.00224 18.57 1.27226 18.57 1.27226C18.57 1.27226 17.9984 2.79337 17.2364 4.08646C15.6298 6.81517 14.9862 6.95918 14.7237 6.78967C14.1132 6.39514 14.2662 5.20255 14.2662 4.35648C14.2662 1.71179 14.6667 0.609207 13.4846 0.324185C13.0916 0.229678 12.8036 0.166674 11.8 0.156173C10.5129 0.142672 9.42231 0.160673 8.80577 0.462196C8.39474 0.663211 8.07822 1.11174 8.27173 1.13725C8.51025 1.16875 9.05029 1.28276 9.33681 1.67279C9.70734 2.17532 9.69383 3.30641 9.69383 3.30641C9.69383 3.30641 9.90685 6.41914 9.1973 6.80617C8.70976 7.07169 8.04221 6.53015 6.60961 4.05346C5.87606 2.78587 5.32102 1.38326 5.32102 1.38326C5.32102 1.38326 5.21451 1.12224 5.02399 0.982735C4.79298 0.813222 4.46895 0.759218 4.46895 0.759218L1.0397 0.780219C1.0397 0.780219 0.525167 0.795221 0.336153 1.01874C0.168141 1.21825 0.322652 1.62928 0.322652 1.62928C0.322652 1.62928 3.00785 7.91025 6.04707 11.077C8.83577 13.9797 12.001 13.7892 12.001 13.7892H13.4351C13.4351 13.7892 13.8686 13.7412 14.0892 13.5027C14.2932 13.2836 14.2857 12.8726 14.2857 12.8726C14.2857 12.8726 14.2572 10.948 15.1512 10.6645C16.0318 10.3854 17.1629 12.5246 18.3615 13.3482C19.2675 13.9707 19.9561 13.8342 19.9561 13.8342L23.1618 13.7892C23.1618 13.7892 24.8389 13.6857 24.0439 12.3671Z" fill="#4D75A3"/>
</svg>
